<svg width="214" height="214" viewBox="0 0 214 214" fill="none" xmlns="http://www.w3.org/2000/svg">
<path fill-rule="evenodd" clip-rule="evenodd" d="M210.994 9.08865C214.717 16.1297 214.094 24.6788 209.389 31.1052L202.411 40.6355C198.301 46.2486 197.968 53.7821 201.566 59.7361L204.564 64.698C205.074 65.5409 204.804 66.6368 203.961 67.1463C203.118 67.6556 202.022 67.3854 201.513 66.5427L198.514 61.5808C194.171 54.395 194.573 45.3025 199.533 38.5281L206.511 28.9978C210.409 23.673 210.926 16.5897 207.841 10.7556L203.851 3.21072C203.39 2.34007 203.723 1.26099 204.594 0.800563C205.464 0.340192 206.543 0.672239 207.004 1.54275L210.994 9.08865ZM127.571 108.168C124.318 100.465 116.768 95.4585 108.405 95.4585H58.7862C50.4239 95.4586 42.874 100.465 39.6202 108.168L26.495 139.243H11.8887C5.65122 139.243 0.59493 144.3 0.594727 150.537V187.461C0.594727 193.699 5.65109 198.756 11.8887 198.756H27.9855C31.5194 207.691 40.1126 213.998 50.1525 213.998C60.1925 213.998 68.7858 207.691 72.3196 198.756H123.539C127.073 207.691 135.666 213.998 145.706 213.998C155.746 213.998 164.339 207.691 167.873 198.756H200.691C206.929 198.756 211.985 193.698 211.985 187.461V150.537C211.985 144.3 206.929 139.243 200.691 139.243H145.331L173.406 112.026C173.961 111.488 174.703 111.188 175.475 111.188H198.26C199.245 111.188 200.043 110.389 200.043 109.405C200.043 108.42 199.245 107.622 198.26 107.621H175.475C173.776 107.621 172.143 108.283 170.923 109.465L140.554 138.906L127.571 108.168ZM69.7502 195.189H69.2637V196.752C66.4232 204.757 58.9036 210.432 50.1525 210.432C38.9902 210.432 29.8313 201.199 29.8313 189.674C29.8313 178.149 38.9902 168.916 50.1525 168.916C61.3149 168.916 70.4737 178.149 70.4738 189.674C70.4738 191.586 70.2217 193.435 69.7502 195.189ZM73.4235 195.189H122.435C122.032 193.417 121.818 191.571 121.818 189.674C121.818 176.24 132.513 165.35 145.706 165.35C158.899 165.35 169.594 176.24 169.594 189.674C169.594 191.571 169.38 193.417 168.977 195.189H200.691C204.959 195.189 208.419 191.729 208.419 187.461V150.537C208.419 146.269 204.959 142.81 200.691 142.81H140.958C140.945 142.81 140.933 142.81 140.92 142.81L140.9 142.81H11.8887C7.62103 142.81 4.16134 146.269 4.16113 150.537V187.461C4.16113 191.729 7.62091 195.189 11.8887 195.189H26.8816C26.4781 193.417 26.2649 191.571 26.2649 189.674C26.2649 176.24 36.9598 165.35 50.1525 165.35C63.3454 165.35 74.0402 176.24 74.0402 189.674C74.0402 191.571 73.827 193.417 73.4235 195.189ZM166.027 189.674C166.027 191.586 165.775 193.435 165.304 195.189H164.815V196.757C161.974 204.76 154.455 210.432 145.706 210.432C136.955 210.432 129.435 204.757 126.595 196.752V195.189H126.108C125.637 193.435 125.385 191.586 125.385 189.674C125.385 178.149 134.544 168.916 145.706 168.916C156.868 168.916 166.027 178.149 166.027 189.674ZM136.825 139.243L124.286 109.556C121.59 103.173 115.334 99.0249 108.405 99.0249H58.7862C51.8575 99.025 45.6024 103.174 42.9063 109.556L30.3663 139.243H136.825ZM166.389 45.7005C171.094 39.274 171.718 30.725 167.994 23.6839L164.004 16.138C163.544 15.2675 162.465 14.9354 161.594 15.3958C160.723 15.8562 160.391 16.9353 160.851 17.806L164.841 25.3509C167.926 31.1849 167.41 38.2682 163.511 43.5931L156.534 53.1233C151.573 59.8978 151.171 68.9902 155.514 76.1761L158.513 81.138C159.023 81.9806 160.118 82.2509 160.961 81.7415C161.804 81.2321 162.074 80.1362 161.565 79.2933L158.567 74.3314C154.968 68.3773 155.302 60.8439 159.411 55.2308L166.389 45.7005Z" fill="#F9FAFB"/>
</svg>
