<svg width="21" height="17" viewBox="0 0 21 17" fill="none" xmlns="http://www.w3.org/2000/svg">
<path d="M2.39225 14.3385H1V11.8534C1 10.9605 1.45664 10.1297 2.21041 9.65107L5.06072 7.84135L7.03307 5.2668C11.2098 4.14712 14.2727 4.48302 15.3865 5.82664C16.5003 7.17027 17.2429 9.85974 17.2429 9.85974V14.3385H15.8506M6.685 14.3385H11.5579" stroke="#F9FAFB" stroke-width="0.869565" stroke-linecap="round" stroke-linejoin="round"/>
<path d="M19.1518 10.9023L20.37 10.9023V6.42355C20.37 6.42355 19.4534 3.71842 18.3396 2.37479C16.9474 1.14092 13.9889 0.442966 9.81214 1.56265L9 2.78087" stroke="#F9FAFB" stroke-width="0.869565" stroke-linecap="round" stroke-linejoin="round"/>
<path d="M7.49707 8.65381L13.9942 8.65381" stroke="#F9FAFB" stroke-width="0.869565" stroke-linecap="round" stroke-linejoin="round"/>
<path d="M15.6187 10.2778L15.6187 11.09" stroke="#F9FAFB" stroke-width="0.869565" stroke-linecap="round" stroke-linejoin="round"/>
<path d="M18 6.00001L18 6.81215" stroke="#F9FAFB" stroke-width="0.869565" stroke-linecap="round" stroke-linejoin="round"/>
<circle cx="4.60945" cy="14.3389" r="1.80476" stroke="#F9FAFB" stroke-width="0.869565"/>
<circle cx="13.6334" cy="14.3389" r="1.80476" stroke="#F9FAFB" stroke-width="0.869565"/>
</svg>
