<svg width="42" height="42" viewBox="0 0 42 42" fill="none" xmlns="http://www.w3.org/2000/svg">
<path d="M29.1565 8.62308H30.8154C32.1853 8.62308 33.4331 9.45431 34.0179 10.7582L38.998 21.8643C39.2212 22.3624 39.3374 22.9063 39.3374 23.457V33.8249C39.3374 35.3681 38.148 36.6187 36.6819 36.6187H5.05029C3.58406 36.6187 2.39551 35.3681 2.39551 33.8249V23.4555C2.39551 22.9063 2.5111 22.3632 2.73393 21.8658L7.71463 10.7582C8.29956 9.45431 9.54688 8.62308 10.9173 8.62308H29.1565Z" stroke="#F9FAFB" stroke-width="1.5" stroke-miterlimit="10"/>
<path d="M9.54324 36.6177V37.854C9.54324 39.3154 8.41765 40.5 7.02907 40.5H4.90938C3.52081 40.5 2.39551 39.3162 2.39551 37.8548V33.4855" stroke="#F9FAFB" stroke-width="1.5" stroke-miterlimit="10"/>
<path d="M32.1897 36.6177V37.8533C32.1897 39.3147 33.3156 40.5 34.7054 40.5H36.8211C38.2109 40.5 39.3376 39.3147 39.3376 37.8533V33.4855" stroke="#F9FAFB" stroke-width="1.5" stroke-miterlimit="10"/>
<path d="M3.27543 20.4678H2.19605C1.36346 20.4678 0.786015 19.5945 1.07574 18.7731L1.44425 17.7295C1.61782 17.2374 2.06456 16.9103 2.56428 16.9103H4.8954" stroke="#F9FAFB" stroke-width="1.5" stroke-miterlimit="10"/>
<path d="M38.4298 20.4678H39.8046C40.6368 20.4678 41.2144 19.5945 40.9242 18.7731L40.5562 17.7295C40.3822 17.2374 39.9358 16.9103 39.436 16.9103H36.7249" stroke="#F9FAFB" stroke-width="1.5" stroke-miterlimit="10"/>
<path d="M39.1868 22.4027C34.7344 23.1372 28.1775 23.6016 20.866 23.6016C13.555 23.6016 6.99808 23.1372 2.54492 22.4027" stroke="#F9FAFB" stroke-width="1.5" stroke-miterlimit="10"/>
<path d="M9.64339 29.4532C9.64339 30.4652 8.86378 31.2852 7.90248 31.2852C6.94126 31.2852 6.16187 30.4652 6.16187 29.4532C6.16187 28.4426 6.94126 27.6226 7.90248 27.6226C8.86378 27.6226 9.64339 28.4426 9.64339 29.4532Z" stroke="#F9FAFB" stroke-width="1.5" stroke-miterlimit="10"/>
<path d="M35.5711 29.4532C35.5711 30.4652 34.7917 31.2852 33.8298 31.2852C32.8685 31.2852 32.0898 30.4652 32.0898 29.4532C32.0898 28.4426 32.8685 27.6226 33.8298 27.6226C34.7917 27.6226 35.5711 28.4426 35.5711 29.4532Z" stroke="#F9FAFB" stroke-width="1.5" stroke-miterlimit="10"/>
<path d="M13.5769 28.2759H28.1555" stroke="#F9FAFB" stroke-width="1.5" stroke-miterlimit="10"/>
<path d="M13.5769 30.6499H28.1555" stroke="#F9FAFB" stroke-width="1.5" stroke-miterlimit="10"/>
</svg>
